<?xml version="1.0" standalone="no"?>
<!DOCTYPE svg PUBLIC "-//W3C//DTD SVG 20010904//EN"
 "http://www.w3.org/TR/2001/REC-SVG-20010904/DTD/svg10.dtd">
<svg version="1.0" xmlns="http://www.w3.org/2000/svg"
 width="96.000000pt" height="96.000000pt" viewBox="0 0 96.000000 96.000000"
 preserveAspectRatio="xMidYMid meet">

<g transform="translate(0.000000,96.000000) scale(0.100000,-0.100000)"
fill="#000000" stroke="none">
<path d="M400 856 c-198 -43 -336 -242 -302 -435 46 -262 324 -403 558 -285
145 74 235 251 204 407 -32 164 -153 286 -315 316 -69 13 -74 13 -145 -3z
m234 -49 l59 -27 -34 -23 c-48 -32 -67 -89 -46 -139 30 -71 115 -95 177 -49
17 12 35 20 38 16 4 -4 7 -50 7 -103 0 -87 -3 -103 -29 -157 -101 -205 -353
-268 -539 -135 -31 23 -57 45 -57 51 0 5 16 23 35 40 95 83 48 235 -79 254
l-44 7 10 36 c12 44 35 90 55 113 13 15 17 15 45 2 41 -21 104 -11 136 20 18
18 26 40 30 77 l5 52 86 -4 c68 -3 99 -9 145 -31z m-254 -7 c0 -77 -87 -123
-150 -80 -13 9 -10 14 15 36 39 32 95 63 118 64 11 0 17 -7 17 -20z m378 -87
c47 -61 56 -82 40 -101 -25 -32 -43 -41 -79 -42 -80 0 -120 97 -63 154 37 37
66 33 102 -11z m-548 -218 c78 -41 79 -169 1 -210 l-30 -15 -27 57 c-16 35
-29 82 -32 120 l-5 63 32 0 c18 0 45 -7 61 -15z"/>
<path d="M432 554 c-32 -22 -30 -69 4 -91 24 -15 29 -15 53 -2 36 20 41 71 9
93 -28 20 -38 20 -66 0z m62 -30 c8 -20 -11 -44 -34 -44 -20 0 -32 23 -24 45
8 20 50 19 58 -1z"/>
<path d="M594 411 c-65 -28 -83 -110 -35 -163 24 -27 36 -33 71 -33 35 0 47 6
71 33 20 22 29 43 29 67 0 65 -78 120 -136 96z m87 -40 c17 -13 23 -29 23 -56
0 -66 -73 -99 -125 -56 -52 42 -17 131 51 131 15 0 38 -8 51 -19z"/>
<path d="M372 284 c-32 -22 -30 -69 4 -91 24 -15 29 -15 53 -2 36 20 41 71 9
93 -28 20 -38 20 -66 0z m58 -29 c10 -12 10 -18 0 -30 -7 -8 -18 -15 -25 -15
-7 0 -18 7 -25 15 -10 12 -10 18 0 30 7 8 18 15 25 15 7 0 18 -7 25 -15z"/>
</g>
</svg>
